# xmcd
#
# Track frame offsets:
#	150
#	15292
#	29774
#	44999
#	65652
#	81552
#	100389
#	119606
#	135278
#	142713
#	158480
#	186683
#	198398
#	225273
#	249186
#	261941
#	293146
#	298193
#
# Disc length: 4378 seconds
#
# Revision: 0
# Processed by: cddbd v1.4PL0 Copyright (c) Steve Scherf et al.
# Submitted via: EasyCDDAExtractor 4.6.0.1
#
DISCID=0c111812
DTITLE=Dead Can Dande - Star Profile
DYEAR=2000
DGENRE=best
TTITLE0=The Fatal Impact
TTITLE1=Frontier
TTITLE2=East of Eden
TTITLE3=Avatar
TTITLE4=Carnival of Light
TTITLE5=In power we entrust the love advocated
TTITLE6=Introduction (a design for living)
TTITLE7=Flowers of Sea
TTITLE8=The arrival and the reunion
TTITLE9=Windfall
TTITLE10=Xavier
TTITLE11=Saltarello
TTITLE12=Cantara
TTITLE13=as te bell rings the maypole spuns
TTITLE14=Radharc
TTITLE15=Yolunga (spirit dance)
TTITLE16=Saldek
TTITLE17=The spider's Stratagem
EXTD=
EXTT0=
EXTT1=
EXTT2=
EXTT3=
EXTT4=
EXTT5=
EXTT6=
EXTT7=
EXTT8=
EXTT9=
EXTT10=
EXTT11=
EXTT12=
EXTT13=
EXTT14=
EXTT15=
EXTT16=
EXTT17=
PLAYORDER=
